 <svg  version="1.0" xmlns="http://www.w3.org/2000/svg"  width="300.000000pt" height="300.000000pt" viewBox="0 0 300.000000 300.000000"  preserveAspectRatio="xMidYMid meet">  <g transform="translate(0.000000,300.000000) scale(0.100000,-0.100000)" fill="#30df33" stroke="none"> <path d="M275 2300 c-3 -4 26 -10 64 -12 120 -6 111 35 111 -503 0 -536 8 -496 -106 -503 -125 -8 -62 -19 106 -18 93 1 170 4 170 9 0 4 -15 7 -34 7 -56 0 -93 18 -105 52 -7 20 -11 180 -10 462 l0 431 23 -60 c12 -33 57 -143 99 -245 41 -102 118 -288 170 -415 84 -206 96 -230 118 -233 22 -3 27 4 46 60 12 35 55 158 96 273 42 116 108 302 147 415 39 112 75 207 80 210 4 3 9 14 11 25 4 17 13 20 77 23 39 2 72 1 72 -1 0 -3 -7 -18 -15 -33 -22 -43 -22 -895 0 -914 13 -11 15 40 15 448 0 527 -5 498 87 509 29 3 50 10 47 15 -3 5 -24 7 -47 4 -23 -3 -87 -5 -143 -5 l-100 -1 -26 -67 c-14 -38 -44 -120 -66 -183 -22 -63 -77 -217 -121 -342 -45 -124 -81 -231 -81 -237 0 -6 -4 -11 -10 -11 -5 0 -10 4 -10 10 0 5 -32 87 -71 182 -131 317 -232 563 -248 605 l-17 42 -162 4 c-89 3 -164 1 -167 -3z m309 -26 c9 -3 16 -14 16 -23 0 -9 4 -21 9 -26 5 -6 26 -55 46 -110 21 -55 52 -133 71 -174 19 -41 34 -82 34 -92 0 -9 4 -19 10 -21 5 -1 23 -39 39 -83 16 -44 37 -98 47 -120 10 -22 18 -42 18 -45 3 -17 52 -120 58 -120 5 0 8 -11 8 -25 0 -14 -3 -25 -8 -25 -8 0 -32 -71 -32 -95 0 -8 -8 -15 -18 -15 -14 0 -22 13 -32 50 -7 27 -16 50 -20 50 -5 0 -40 84 -46 110 -1 6 -3 10 -51 130 -19 47 -39 93 -44 102 -5 10 -9 27 -9 38 0 12 -4 19 -9 16 -4 -3 -14 14 -21 37 -8 23 -16 47 -19 52 -3 6 -6 15 -7 22 -1 7 -12 34 -24 60 -13 26 -26 57 -30 68 -5 11 -17 41 -29 67 -12 26 -21 53 -21 58 0 6 -5 16 -10 23 -15 18 -60 87 -60 92 0 7 116 6 134 -1z m-113 -987 c-13 -13 -26 -3 -16 12 3 6 11 8 17 5 6 -4 6 -10 -1 -17z"/> <path d="M1250 2160 c-1 -30 -2 -229 -3 -441 -2 -366 -3 -388 -21 -408 -11 -12 -37 -24 -58 -28 -66 -10 -28 -20 60 -15 65 3 80 7 72 17 -6 7 -22 10 -37 7 -27 -5 -27 -5 -11 20 15 23 17 71 16 450 0 234 -4 432 -9 439 -6 9 -9 -5 -9 -41z"/> <path d="M1460 1848 c0 -5 13 -8 29 -8 44 0 87 -19 99 -43 8 -14 13 -114 14 -284 3 -255 2 -262 -17 -266 -18 -4 -17 -4 3 -6 30 -2 28 -29 -4 -41 -32 -12 -44 -6 -39 20 2 11 -1 20 -6 20 -6 0 -9 -12 -7 -27 3 -25 7 -28 36 -27 l32 2 0 -148 c0 -141 -1 -150 -23 -175 -17 -20 -35 -28 -70 -32 -101 -12 -37 -18 178 -18 215 0 279 6 178 18 -35 4 -53 12 -70 32 -22 25 -23 34 -23 176 0 108 3 148 11 143 6 -3 15 -1 19 6 5 8 13 9 21 4 20 -13 119 -15 140 -3 14 7 19 6 19 -2 0 -8 4 -8 14 0 11 10 20 10 37 1 17 -9 27 -9 45 1 13 7 24 16 24 20 0 4 -12 1 -27 -6 -22 -11 -30 -12 -43 -2 -18 15 -35 14 -73 -1 -39 -16 -65 -16 -49 0 16 16 15 28 -3 28 -8 0 -15 -4 -15 -9 0 -14 -35 -23 -64 -15 -22 5 -24 9 -15 25 5 11 7 25 3 31 -5 7 -3 8 6 3 10 -6 12 -3 8 13 -4 13 1 27 11 36 16 14 21 11 59 -44 24 -33 47 -60 53 -60 12 0 -4 32 -38 77 -14 18 -22 37 -18 42 4 7 -1 8 -12 4 -13 -5 -11 1 10 26 15 18 27 37 27 43 0 6 7 8 14 5 11 -4 13 -1 9 10 -5 12 -3 14 10 7 16 -9 42 -46 183 -254 46 -69 91 -136 101 -150 9 -14 41 -57 70 -97 29 -40 53 -75 53 -78 0 -4 -8 -4 -17 -1 -10 3 -34 7 -54 10 -77 11 -114 41 -182 146 -20 30 -45 66 -55 80 -10 14 -27 39 -37 57 -17 29 -42 49 -51 40 -2 -2 42 -70 97 -151 102 -149 131 -178 199 -195 43 -11 200 -20 200 -11 0 3 -15 12 -34 18 -19 7 -50 32 -68 55 -37 44 -388 555 -388 564 0 12 298 328 330 349 20 14 51 26 68 27 18 1 32 7 32 12 0 6 -62 10 -165 10 -91 1 -165 -2 -165 -5 0 -4 28 -11 62 -16 75 -11 89 -28 66 -78 -10 -19 -107 -136 -217 -260 -187 -210 -219 -248 -190 -230 9 5 10 -1 5 -22 -10 -38 -16 -44 -59 -51 -30 -5 -37 -3 -37 11 0 13 5 16 23 11 18 -6 20 -5 9 6 -10 11 -16 11 -30 1 -42 -30 -63 -36 -73 -21 -13 21 -5 34 24 37 15 2 27 8 27 14 0 6 -9 8 -20 5 -16 -4 -20 0 -20 20 0 14 -4 22 -11 18 -6 -4 -8 -14 -5 -22 3 -8 1 -11 -5 -8 -6 4 -7 20 -3 38 11 50 6 474 -6 496 -5 11 -10 22 -10 25 0 3 38 6 85 6 47 0 85 -3 85 -6 0 -3 -5 -14 -10 -24 -11 -20 -16 -577 -6 -588 15 -15 18 25 16 281 0 188 3 282 11 300 14 30 48 47 94 47 19 0 35 3 35 8 0 4 -101 7 -225 7 -124 0 -225 -3 -225 -7z m810 -26 c0 -10 -21 -32 -31 -32 -4 0 -9 9 -12 20 -4 16 0 20 19 20 13 0 24 -4 24 -8z m-645 -632 c3 -5 18 -9 33 -8 15 1 43 1 62 0 l35 -2 -5 -137 c-4 -96 -1 -145 8 -166 6 -16 12 -31 12 -33 0 -2 -38 -4 -85 -4 -47 0 -85 2 -85 4 0 2 7 21 16 41 20 49 18 258 -3 293 -7 12 -9 22 -4 22 5 0 13 -4 16 -10z"/> <path d="M1520 1361 c-41 -13 -105 -48 -139 -76 l-31 -27 21 -30 c30 -42 78 -61 118 -47 17 6 31 15 31 20 0 6 -8 5 -19 -1 -11 -5 -31 -10 -45 -10 -26 0 -86 44 -86 63 0 11 52 48 110 77 37 19 89 29 96 19 8 -14 -17 -41 -33 -35 -7 3 -13 1 -13 -4 0 -15 36 -12 50 5 30 36 -5 63 -60 46z"/> <path d="M1017 1285 c-10 -24 -29 -55 -42 -69 -24 -26 -55 -35 -55 -16 0 6 7 10 15 10 8 0 15 5 15 10 0 14 -13 13 -28 -2 -16 -16 -15 -35 3 -42 20 -7 81 47 89 80 11 43 17 20 7 -25 -7 -31 -6 -41 2 -38 7 2 11 13 10 23 -1 10 2 38 6 61 11 58 0 62 -22 8z"/> <path d="M1089 1308 c-7 -12 -14 -47 -16 -76 -3 -51 -3 -52 22 -48 22 4 24 3 14 -15 -5 -11 -8 -28 -6 -37 3 -14 6 -12 14 8 6 14 14 33 17 43 3 10 15 17 30 17 42 0 37 16 -5 17 -21 1 -39 -2 -39 -8 0 -5 -5 -9 -11 -9 -5 0 -7 6 -4 13 4 6 -1 3 -9 -7 -16 -20 -16 -20 -16 0 0 12 7 43 15 69 16 54 13 69 -6 33z"/> <path d="M1341 1311 c-8 -5 -21 -7 -29 -3 -10 3 -13 1 -8 -6 4 -7 14 -12 22 -12 11 0 13 -6 8 -22 -19 -61 -64 -99 -91 -76 -14 11 -15 11 -11 -2 10 -30 48 -23 83 16 19 20 32 41 29 45 -3 5 0 18 6 29 14 27 10 42 -9 31z"/> <path d="M1420 1280 c-12 -8 -9 -10 15 -11 17 -1 47 -3 67 -4 21 -2 40 0 43 6 4 5 -7 9 -23 9 -16 0 -42 2 -58 5 -16 3 -36 1 -44 -5z"/> <path d="M1050 1250 c-6 -12 -9 -24 -7 -27 3 -2 11 5 17 17 6 12 9 24 7 27 -3 2 -11 -5 -17 -17z"/> </g> </svg> 