<?xml version="1.0" standalone="no"?>
<!DOCTYPE svg PUBLIC "-//W3C//DTD SVG 20010904//EN"
 "http://www.w3.org/TR/2001/REC-SVG-20010904/DTD/svg10.dtd">
<svg version="1.0" xmlns="http://www.w3.org/2000/svg"
 width="300.000000pt" height="214.000000pt" viewBox="0 0 300.000000 214.000000"
 preserveAspectRatio="xMidYMid meet">
<metadata>
Created by potrace 1.10, written by Peter Selinger 2001-2011
</metadata>
<g transform="translate(0.000000,214.000000) scale(0.050000,-0.050000)"
fill="#88cd0a" stroke="none">
<path d="M35 4168 c-32 -32 16 -48 147 -48 146 0 249 -30 296 -88 38 -45 42
-2456 5 -2527 -41 -75 -126 -105 -304 -105 -121 0 -160 -6 -154 -25 13 -39
955 -43 955 -3 0 21 -29 28 -115 28 -152 0 -247 48 -279 140 -28 84 -37 2380
-9 2349 10 -10 27 -46 39 -79 23 -67 276 -691 584 -1440 113 -275 253 -617
311 -760 101 -250 107 -260 167 -266 39 -4 65 3 70 20 4 14 55 157 113 316
131 363 260 725 360 1010 42 121 128 364 189 540 62 176 141 408 175 515 34
108 67 189 74 180 6 -8 7 -553 1 -1212 l-10 -1196 -65 -59 c-50 -44 -85 -58
-147 -58 -56 0 -79 -8 -73 -25 9 -24 449 -27 473 -3 5 5 -10 23 -34 40 -51 35
-56 81 -17 156 22 42 27 274 27 1209 0 636 7 1168 14 1181 9 13 5 21 -9 17
-13 -3 -28 5 -32 17 -5 13 17 23 52 24 65 1 152 -82 127 -122 -11 -19 -13
-107 -8 -374 1 -49 1 -198 0 -330 0 -132 1 -244 3 -250 2 -5 2 -19 -1 -30 -19
-78 -7 -1180 13 -1208 18 -24 18 -39 0 -61 -16 -20 -16 -25 0 -15 13 8 44 -20
75 -66 29 -44 55 -80 57 -80 3 0 5 560 5 1245 0 1474 -17 1395 295 1395 70 0
96 7 90 25 -9 26 -44 28 -542 19 l-266 -4 -62 -165 c-209 -560 -303 -822 -596
-1670 -81 -234 -154 -426 -163 -427 -14 -2 -329 752 -788 1882 -78 193 -148
356 -155 363 -18 18 -871 42 -888 25z m785 -168 c25 -16 23 -19 -10 -20 -36
-1 -35 -3 8 -25 27 -14 50 -44 52 -68 2 -24 20 -69 41 -100 21 -31 38 -66 39
-77 0 -11 22 -65 48 -120 26 -55 47 -104 46 -110 -1 -5 9 -28 23 -50 15 -22
38 -83 52 -136 15 -52 34 -100 44 -106 10 -6 12 -19 6 -29 -6 -11 -1 -19 12
-19 14 0 19 -17 13 -40 -6 -22 -2 -35 8 -29 10 6 19 2 21 -10 6 -51 8 -58 22
-73 22 -22 18 -148 -5 -148 -11 0 -20 -17 -20 -39 0 -21 9 -44 20 -51 11 -7
21 -32 22 -56 2 -34 5 -36 12 -9 5 20 16 31 25 26 8 -5 11 13 5 41 -7 37 -14
44 -26 25 -29 -47 -33 -9 -7 63 14 39 27 55 27 37 1 -18 19 -68 40 -110 57
-115 92 -214 86 -242 -3 -14 4 -25 15 -25 12 0 21 -12 21 -26 0 -14 18 -61 40
-104 27 -53 33 -82 18 -91 -14 -9 -5 -26 24 -46 26 -18 40 -33 31 -33 -8 0 -8
-11 0 -25 9 -14 14 -43 11 -65 -4 -28 -1 -32 12 -14 12 18 25 1 44 -55 14 -45
33 -81 41 -81 25 0 34 -94 12 -133 -18 -33 -16 -34 13 -10 30 25 34 23 34 -15
0 -23 -8 -42 -19 -42 -10 0 -22 -29 -27 -65 -7 -59 -9 -61 -23 -20 -9 25 -24
45 -33 45 -10 0 -18 19 -18 43 0 24 -6 38 -14 30 -25 -25 -67 112 -57 185 8
56 6 61 -6 22 -16 -49 -17 -49 -50 27 -18 43 -33 84 -34 90 0 7 -17 49 -38 93
-21 43 -34 86 -29 93 5 8 0 20 -12 27 -11 7 -20 32 -20 56 0 24 -10 58 -22 74
-18 25 -20 24 -10 -6 7 -21 3 -31 -8 -24 -11 7 -20 39 -20 71 0 33 -9 59 -20
59 -11 0 -20 18 -20 40 0 22 -9 40 -20 40 -11 0 -20 21 -20 46 0 25 -9 55 -19
65 -11 11 -23 39 -26 62 -4 24 -19 57 -33 75 -14 17 -27 53 -29 80 -2 26 -11
43 -21 37 -11 -6 -13 3 -7 20 7 18 1 41 -12 53 -14 11 -23 48 -21 81 3 42 -5
61 -25 61 -16 0 -25 8 -19 17 6 9 -7 36 -29 59 -21 23 -39 51 -39 60 0 10 -17
63 -38 116 -56 143 -67 175 -74 208 -3 16 -14 32 -25 36 -11 3 -31 46 -45 95
-15 49 -35 89 -45 89 -11 0 -3 18 17 40 38 43 23 51 -70 42 -27 -3 -27 -1 0
17 38 26 121 26 160 1z"/>
<path d="M3249 2942 c-21 -20 20 -42 80 -42 304 0 310 -16 312 -915 l1 -675
-46 -13 -46 -13 45 -2 c92 -4 43 -116 -57 -127 -42 -4 -48 3 -48 60 0 36 -10
65 -23 65 -14 0 -22 -30 -20 -75 3 -84 68 -111 153 -65 l43 23 -7 -417 c-8
-516 -19 -540 -264 -564 -66 -7 -122 -22 -126 -35 -6 -16 158 -23 613 -23 518
0 621 5 621 28 0 20 -27 28 -97 28 -265 0 -283 34 -290 551 -6 363 4 486 32
404 7 -19 16 -19 42 3 27 22 45 23 84 5 32 -14 66 -16 98 -3 33 12 54 11 62
-2 8 -12 52 -18 99 -15 l85 7 219 -330 c416 -625 502 -680 1065 -680 103 0
112 50 13 68 -49 10 -99 46 -175 129 -92 100 -1043 1464 -1071 1535 -5 15 52
92 127 172 75 81 209 227 297 326 399 449 477 512 665 542 222 35 75 58 -375
60 -372 1 -460 -4 -460 -25 0 -15 7 -27 15 -28 557 -25 556 -26 -505 -1205
-88 -97 -191 -217 -230 -265 -38 -48 -75 -88 -81 -88 -30 -2 3 1409 33 1456
41 61 145 103 257 103 60 0 91 9 91 25 0 23 -1208 40 -1231 17z m620 -203 c-5
-9 -1 -22 11 -29 11 -7 21 8 22 34 2 45 2 45 17 -4 8 -27 7 -65 -2 -84 -23
-44 -21 -61 3 -46 23 14 29 -175 6 -197 -7 -7 -11 -63 -8 -123 4 -80 -2 -110
-22 -110 -16 0 -18 -6 -6 -15 44 -32 59 -445 16 -445 -14 0 -26 -10 -26 -21 0
-12 9 -16 20 -9 11 7 21 5 22 -4 0 -9 4 -33 8 -54 4 -21 9 -84 12 -140 2 -56
17 -117 34 -136 16 -19 34 -62 41 -96 14 -69 50 -83 59 -23 3 21 29 59 57 86
l50 47 -14 -60 c-24 -101 -45 -124 -129 -145 -102 -26 -171 -12 -138 28 13 15
40 23 61 16 44 -14 51 27 6 44 -16 6 -64 -12 -106 -41 -105 -73 -163 -70 -163
8 0 55 6 60 69 60 38 0 74 9 81 20 7 12 -14 20 -51 20 -58 0 -62 4 -51 51 18
68 -3 98 -43 65 -28 -23 -29 -21 -5 24 14 28 36 56 48 64 23 15 25 24 30 107
1 33 10 46 25 37 16 -10 18 -5 6 14 -25 39 -29 556 -4 571 12 8 11 17 -2 25
-13 8 -17 43 -10 87 7 41 20 69 30 63 9 -6 15 51 13 126 l-4 136 -7 -115 c-10
-168 -41 -141 -34 30 3 80 7 151 8 158 0 7 19 9 41 3 22 -6 35 -18 29 -27z
m876 -1318 c41 -46 70 -93 64 -103 -6 -9 4 -12 23 -4 24 9 30 5 20 -11 -9 -14
-2 -23 16 -23 17 0 39 -17 50 -37 37 -69 -66 -116 -118 -54 -16 20 -50 27
-100 22 -76 -7 -129 49 -77 81 11 7 9 23 -6 41 -20 24 -19 34 4 48 21 13 22
18 4 19 -45 0 -96 133 -66 169 29 34 17 44 186 -148z m-345 0 c35 -55 90 -133
122 -174 68 -85 44 -123 -58 -97 -54 14 -54 14 -9 32 25 9 45 25 45 36 0 41
-36 38 -106 -9 -78 -53 -124 -62 -145 -27 -7 12 -30 17 -51 12 -33 -9 -32 -1
14 78 29 49 47 102 40 119 -12 32 40 129 68 129 9 0 45 -45 80 -99z m508 -284
c86 31 92 30 92 -17 0 -50 61 -206 87 -223 11 -8 22 -29 25 -48 3 -19 13 -40
23 -47 26 -18 245 -343 245 -363 0 -50 -94 5 -167 97 -144 180 -173 220 -173
237 0 24 -241 273 -300 310 -42 27 -46 36 -23 64 24 29 31 29 77 -1 41 -27 60
-29 114 -9z m-943 -17 c72 0 76 -2 45 -33 -59 -59 -70 -125 -70 -425 0 -302
-6 -338 -53 -299 -20 16 -27 16 -27 -1 0 -20 27 -30 65 -24 8 1 15 -8 15 -19
0 -12 -32 -19 -75 -15 l-75 6 -4 345 c-4 337 -6 347 -56 413 l-51 67 49 -10
c27 -5 65 0 85 12 23 13 44 13 56 2 10 -11 54 -19 96 -19z"/>
<path d="M3389 1599 c-67 -21 -195 -87 -284 -147 l-162 -108 28 78 c27 77 -4
119 -42 56 -7 -12 -35 -16 -63 -9 -36 9 -48 5 -41 -13 4 -14 28 -29 53 -33 56
-8 47 -65 -29 -184 -60 -96 -114 -128 -168 -100 -48 26 -61 26 -61 1 0 -93
194 -48 248 57 59 113 86 117 162 29 110 -129 250 -159 361 -77 55 39 21 62
-34 23 -94 -66 -222 -27 -319 96 -49 62 -10 129 59 102 86 -33 383 -35 383 -3
0 26 -20 33 -99 33 -219 0 -251 52 -76 124 181 74 252 87 267 47 18 -47 -28
-91 -96 -91 -34 0 -53 -8 -46 -20 38 -61 190 29 190 112 0 69 -73 77 -231 27z"/>
<path d="M2059 1445 c-48 -151 -171 -305 -244 -305 -53 0 -42 38 18 61 64 24
48 49 -20 32 -89 -23 -82 -133 8 -133 52 0 155 93 200 183 51 98 58 97 37 -8
-33 -174 -13 -177 93 -15 39 61 67 92 61 70 -33 -131 -34 -184 -5 -208 27 -22
30 -17 21 41 -5 37 7 128 28 202 51 177 25 187 -65 26 -91 -162 -108 -174 -89
-55 31 190 5 258 -43 109z"/>
<path d="M2329 1198 c-15 -48 -49 -50 -49 -3 -1 29 -4 30 -19 6 -22 -34 12
-88 43 -69 11 7 5 -15 -12 -49 -35 -67 -42 -123 -14 -123 27 0 58 45 73 110
20 81 48 113 89 100 42 -13 100 7 100 34 0 12 -18 16 -41 10 -22 -6 -67 -3
-99 6 -48 14 -60 10 -71 -22z"/>
</g>
</svg>
